<svg width="154" height="54" viewBox="0 0 154 54" fill="none" xmlns="http://www.w3.org/2000/svg">
<path d="M17.3847 -3.8147e-06C21.0697 -3.8147e-06 22.2276 2.63578 23.199 5.26744C23.6071 6.38496 33.183 32.5363 33.471 33.3212C33.5476 33.5402 33.4958 33.8996 33.1582 34.0298C32.8185 34.1578 27.8431 36.0872 27.5676 36.1904C27.2921 36.2958 26.9834 36.1429 26.884 35.8682C26.7804 35.5976 24.7153 29.8964 24.4833 29.2601H10.2903C10.0666 29.8964 7.97657 35.61 7.88335 35.8682C7.78807 36.1305 7.49187 36.3082 7.19773 36.1904C6.9036 36.0748 1.90953 34.1454 1.61125 34.0298C1.3254 33.9182 1.19491 33.5939 1.29433 33.3212C1.64647 32.3421 11.0774 6.61012 11.558 5.26744C12.4942 2.67503 13.6915 -3.8147e-06 17.3847 -3.8147e-06ZM0.536213 46.7935C0.237936 46.7935 -0.000270844 47.0414 -0.000270844 47.343V53.4553C-0.000270844 53.7569 0.237936 54.0006 0.536213 54.0006H34.2187C34.5232 54.0006 34.7614 53.7569 34.7614 53.4553V47.343C34.7614 47.0414 34.5232 46.7935 34.2187 46.7935H0.536213ZM17.3516 8.53946L12.5543 22.9062H22.2276L17.4137 8.53946H17.3516ZM89.3378 32.0963C88.6315 32.3339 88.1654 32.3917 87.6103 32.3917C86.4628 32.3917 85.8268 31.9393 85.8268 30.766C85.8268 29.5431 86.6347 29.1341 88.2214 29.1341C88.6087 29.1341 88.9898 29.1899 89.168 29.2519V30.1277C89.168 31.0717 89.2197 31.6914 89.3378 32.0963ZM93.4163 33.4968C92.5691 32.214 92.3475 31.458 92.3475 29.8406V26.5562C92.3475 24.788 92.1404 24.1497 91.6722 23.5052C91.0198 22.5922 89.9323 22.1956 87.9334 22.1956C86.5187 22.1956 85.1454 22.3484 83.8155 22.6872L84.2961 25.0214C85.1951 24.8954 86.1376 24.788 86.8025 24.788C88.9256 24.788 89.168 25.0937 89.168 26.6822V27.275C88.6957 27.149 88.1654 27.0581 87.5502 27.0581C84.3541 27.0581 82.6659 28.6177 82.6659 31.1998C82.6659 33.6208 84.4701 34.9407 86.6678 34.9407C87.4881 34.9407 88.3456 34.7899 89.025 34.5131C89.4352 34.3355 89.6133 34.2301 90.1436 33.8872C90.4626 34.3499 91.1026 34.823 91.3636 34.9118L93.4163 33.4968ZM125.032 32.0963C124.321 32.3339 123.863 32.3917 123.304 32.3917C122.152 32.3917 121.508 31.9393 121.508 30.766C121.508 29.5431 122.326 29.1341 123.917 29.1341C124.305 29.1341 124.688 29.1899 124.862 29.2519V30.1277C124.862 31.0717 124.911 31.6914 125.032 32.0963ZM129.114 33.4968C128.261 32.214 128.043 31.458 128.043 29.8406V26.5562C128.043 24.788 127.832 24.1497 127.36 23.5052C126.716 22.5922 125.626 22.1956 123.621 22.1956C122.208 22.1956 120.827 22.3484 119.497 22.6872L119.971 25.0214C120.872 24.8954 121.817 24.788 122.5 24.788C124.611 24.788 124.862 25.0937 124.862 26.6822V27.275C124.389 27.149 123.863 27.0581 123.236 27.0581C120.035 27.0581 118.341 28.6177 118.341 31.1998C118.341 33.6208 120.149 34.9407 122.357 34.9407C123.188 34.9407 124.037 34.7899 124.711 34.5131C125.127 34.3355 125.299 34.2301 125.829 33.8872C126.152 34.3499 126.792 34.823 127.055 34.9118L129.114 33.4968ZM154 34.666C154 34.666 152.247 30.9416 151.819 30.0947C151.336 29.1403 150.889 28.4814 149.903 28.2438V28.1901C150.563 28.0641 151.089 27.6654 151.665 26.4467C152.21 25.2589 152.372 25.0028 152.693 24.7198C153.008 24.4389 153.438 24.5401 153.438 24.5401L153.6 22.3443C153.142 22.2823 152.635 22.2803 152.111 22.3092C151.241 22.3608 150.791 22.6108 150.362 23.0404C150.027 23.3689 149.799 23.8605 149.517 24.4244C149.219 25.04 148.983 25.5357 148.672 26.1616C148.364 26.8041 148.219 27.0933 147.388 27.0933H146.847V17.366H143.647V34.666H146.847V29.6919L147.284 29.6836C148.202 29.6836 148.364 29.9129 148.848 30.8776C149.416 32.0281 150.503 34.666 150.503 34.666H154ZM63.8455 34.666H67.5387L61.9523 17.6552C61.364 17.459 60.6369 17.3371 59.8602 17.3371C59.013 17.3371 58.7106 17.4487 58.0477 17.6552L52.1361 34.666H55.6802C55.6802 34.666 56.1586 33.1746 56.7221 31.3258H62.845C63.3919 33.1725 63.8455 34.666 63.8455 34.666ZM57.621 28.4731C57.621 28.4731 58.6443 25.0586 58.8038 24.5277C59.2098 23.152 59.827 20.9665 59.827 20.9665H59.9285C59.9285 20.9665 60.5002 23.2305 60.8731 24.5029C61.0139 25.009 61.9916 28.4731 61.9916 28.4731H57.621ZM98.8682 26.5273C97.7393 26.5273 96.8217 27.4465 96.8217 28.5723C96.8217 29.7063 97.7393 30.6193 98.8682 30.6193C99.9992 30.6193 100.913 29.7063 100.913 28.5723C100.913 27.4465 99.9992 26.5273 98.8682 26.5273ZM71.9238 17.366H68.7153V34.6639H71.9238V17.366ZM135.67 24.945C137.443 24.9821 137.663 25.3478 137.663 26.8309V34.666H140.842V26.5562C140.842 24.788 140.635 24.1497 140.163 23.5052C139.51 22.5922 138.228 22.1956 136.06 22.1956C133.914 22.1956 132.547 22.4228 130.788 22.9454V34.666H134.001V25.0937C134.844 24.9718 134.993 24.945 135.67 24.945ZM79.8592 17.0583C77.8542 17.0583 76.7625 17.4549 76.1204 18.3658C75.6482 19.0124 75.4389 19.6651 75.4389 21.4375V22.9454H73.8461V25.5316H75.4389V34.666H78.6206L78.6123 25.5316H81.7835V22.9454H78.6123L78.6206 21.5593C78.6206 19.9729 78.8629 19.6651 80.9881 19.6651C81.2181 19.6651 81.477 19.6775 81.7525 19.6982L82.2537 17.2132C81.4687 17.1099 80.665 17.0583 79.8592 17.0583ZM105.387 17.2194C106.478 17.1553 108.918 17.0645 110.449 17.0645C110.729 17.0645 111.019 17.0665 111.309 17.081C114.319 17.081 116.044 19.2665 116.044 21.832C116.044 23.5775 115.242 24.7363 113.364 25.4263C115.574 25.9138 116.732 27.6345 116.732 29.7394C116.732 31.2845 116.295 32.5115 115.493 33.3481C114.453 34.3685 112.879 34.9407 110.783 34.9407C108.918 34.9407 106.578 34.8829 105.387 34.8126V17.2194ZM110.449 20.0535C109.919 20.0535 109.262 20.0638 108.612 20.0865V24.2406H110.451C111.18 24.2406 111.767 24.0381 112.166 23.6477C112.547 23.28 112.746 22.7595 112.746 22.1419C112.746 20.8136 112.026 20.0617 110.685 20.0535H110.449ZM110.515 31.9579H110.654C112.326 31.9579 113.349 31.0717 113.362 29.287C113.345 28.6466 113.098 28.0559 112.657 27.6283C112.175 27.1449 111.491 26.8929 110.689 26.8929H108.612V31.9393C109.198 31.9517 109.844 31.9538 110.515 31.9579Z" fill="#3A5672"/>
</svg>
