<svg width="61" height="59" viewBox="0 0 61 59" fill="none" xmlns="http://www.w3.org/2000/svg">
<g clip-path="url(#clip0_16_2)">
<path d="M37.9513 41.5242C46.5428 32.9326 46.5428 19.003 37.9513 10.4115C29.3597 1.81995 15.4301 1.81995 6.83858 10.4115C-1.75295 19.003 -1.75295 32.9326 6.83858 41.5242C15.4301 50.1157 29.3597 50.1157 37.9513 41.5242Z" fill="#684789"/>
<path d="M50.395 28.9706H20.395V57.9706H50.395V28.9706Z" fill="#1F2A39"/>
<path d="M51.395 58.9706H19.395V27.9706H51.395V58.9706ZM21.395 56.9706H49.395V29.9706H21.395V56.9706Z" fill="#D5EBFC"/>
<path d="M25.395 28.9706L42.395 0.970581L59.395 28.9706H25.395Z" fill="#1F2A39"/>
<path d="M59.395 29.9706H25.395C25.035 29.9706 24.705 29.7806 24.525 29.4606C24.345 29.1506 24.355 28.7606 24.545 28.4506L41.545 0.45061C41.905 -0.14939 42.895 -0.14939 43.255 0.45061L60.255 28.4506C60.445 28.7606 60.445 29.1406 60.275 29.4606C60.095 29.7806 59.765 29.9706 59.405 29.9706H59.395ZM27.175 27.9706H57.625L42.395 2.89061L27.175 27.9606V27.9706Z" fill="#D5EBFC"/>
<path d="M26.395 46.9706C33.0224 46.9706 38.395 41.598 38.395 34.9706C38.395 28.3432 33.0224 22.9706 26.395 22.9706C19.7676 22.9706 14.395 28.3432 14.395 34.9706C14.395 41.598 19.7676 46.9706 26.395 46.9706Z" fill="#1F2A39"/>
<path d="M26.395 47.9706C19.225 47.9706 13.395 42.1406 13.395 34.9706C13.395 27.8006 19.225 21.9706 26.395 21.9706C33.565 21.9706 39.395 27.8006 39.395 34.9706C39.395 42.1406 33.565 47.9706 26.395 47.9706ZM26.395 23.9706C20.325 23.9706 15.395 28.9006 15.395 34.9706C15.395 41.0406 20.325 45.9706 26.395 45.9706C32.465 45.9706 37.395 41.0406 37.395 34.9706C37.395 28.9006 32.465 23.9706 26.395 23.9706Z" fill="#D5EBFC"/>
<path d="M13.395 15.9706H7.39502V21.9706H13.395V15.9706Z" fill="#1F2A39"/>
<path d="M14.395 22.9706H6.39502V14.9706H14.395V22.9706ZM8.39502 20.9706H12.395V16.9706H8.39502V20.9706Z" fill="#D5EBFC"/>
<path d="M45.395 14.9706H39.395V20.9706H45.395V14.9706Z" fill="#1F2A39"/>
<path d="M46.395 21.9706H38.395V13.9706H46.395V21.9706ZM40.395 19.9706H44.395V15.9706H40.395V19.9706Z" fill="#D5EBFC"/>
<path d="M45.395 47.9706H39.395V53.9706H45.395V47.9706Z" fill="#1F2A39"/>
<path d="M46.395 54.9706H38.395V46.9706H46.395V54.9706ZM40.395 52.9706H44.395V48.9706H40.395V52.9706Z" fill="#D5EBFC"/>
<path d="M13.395 47.9706H7.39502V53.9706H13.395V47.9706Z" fill="#1F2A39"/>
<path d="M14.395 54.9706H6.39502V46.9706H14.395V54.9706ZM8.39502 52.9706H12.395V48.9706H8.39502V52.9706Z" fill="#D5EBFC"/>
<path d="M11.395 20.9706H9.39502V24.9706H11.395V20.9706Z" fill="#D5EBFC"/>
<path d="M11.395 26.9706H9.39502V30.9706H11.395V26.9706Z" fill="#D5EBFC"/>
<path d="M11.395 32.9706H9.39502V36.9706H11.395V32.9706Z" fill="#D5EBFC"/>
<path d="M11.395 38.9706H9.39502V42.9706H11.395V38.9706Z" fill="#D5EBFC"/>
<path d="M11.395 44.9706H9.39502V48.9706H11.395V44.9706Z" fill="#D5EBFC"/>
<path d="M43.395 20.9706H41.395V24.9706H43.395V20.9706Z" fill="#D5EBFC"/>
<path d="M43.395 26.9706H41.395V30.9706H43.395V26.9706Z" fill="#D5EBFC"/>
<path d="M43.395 32.9706H41.395V36.9706H43.395V32.9706Z" fill="#D5EBFC"/>
<path d="M43.395 38.9706H41.395V42.9706H43.395V38.9706Z" fill="#D5EBFC"/>
<path d="M43.395 44.9706H41.395V48.9706H43.395V44.9706Z" fill="#D5EBFC"/>
<path d="M16.395 17.9706H12.395V19.9706H16.395V17.9706Z" fill="#D5EBFC"/>
<path d="M22.395 17.9706H18.395V19.9706H22.395V17.9706Z" fill="#D5EBFC"/>
<path d="M28.395 17.9706H24.395V19.9706H28.395V17.9706Z" fill="#D5EBFC"/>
<path d="M34.395 17.9706H30.395V19.9706H34.395V17.9706Z" fill="#D5EBFC"/>
<path d="M40.395 17.9706H36.395V19.9706H40.395V17.9706Z" fill="#D5EBFC"/>
<path d="M16.395 49.9706H12.395V51.9706H16.395V49.9706Z" fill="#D5EBFC"/>
<path d="M22.395 49.9706H18.395V51.9706H22.395V49.9706Z" fill="#D5EBFC"/>
<path d="M28.395 49.9706H24.395V51.9706H28.395V49.9706Z" fill="#D5EBFC"/>
<path d="M34.395 49.9706H30.395V51.9706H34.395V49.9706Z" fill="#D5EBFC"/>
<path d="M40.395 49.9706H36.395V51.9706H40.395V49.9706Z" fill="#D5EBFC"/>
</g>
<defs>
<clipPath id="clip0_16_2">
<rect width="60" height="58.97" fill="white" transform="translate(0.39502 0.000610352)"/>
</clipPath>
</defs>
</svg>
