<svg width="111" height="36" viewBox="0 0 111 36" fill="none" xmlns="http://www.w3.org/2000/svg">
<path d="M42.4915 31.4042C38.3984 28.7688 32.8435 28.3064 23.885 30.7905C14.3346 33.0336 11.1504 34.4716 6.96862 31.585C5.36207 30.167 4.78608 27.8839 5.21618 24.5952C6.21375 19.2341 8.90957 14.0749 13.698 8.3521C16.3709 5.37511 18.8501 2.82031 22.124 1.7944C24.6331 1.15082 24.3985 3.12169 24.0949 3.40356C23.7746 3.40356 23.2364 3.45399 22.8204 3.72528C22.4829 3.98694 21.5563 4.83186 21.5065 5.96839C21.4347 7.70824 23.2362 7.34612 24.0133 6.39085C24.8508 5.31437 26.0885 3.25293 25.1149 1.33168C24.7068 0.647832 24.0017 0.175214 23.1262 0.0142845C20.1285 -0.156952 17.3365 1.27135 14.7599 2.85041C9.1249 6.76287 4.61723 12.1842 2.06661 18.1183C0.596046 21.6988 -0.733854 26.8276 1.25962 31.002C2.80168 33.8985 6.00323 35.437 9.82285 35.1153C12.5018 34.834 15.7411 33.9686 17.9198 33.4461C20.0985 32.9227 31.251 29.0911 34.9154 35.7598C34.9154 35.7598 36.1339 33.3956 39.1791 33.3452C41.6827 33.1143 45.2944 34.0696 47.9246 36.0003C47.0484 34.6832 44.564 32.742 42.4915 31.4042Z" fill="#3A5672"/>
<path d="M25.0222 9.02587C22.9363 7.65804 18.7439 10.273 15.386 14.7586C12.3154 18.7821 10.9895 23.4584 12.4324 25.6208C14.5789 28.1653 18.5637 24.4642 20.2582 22.4832L20.4768 22.2516C21.6292 21.0145 22.5195 19.5258 23.3813 18.0976C23.3813 18.0976 24.1733 16.7901 24.2111 16.7296C24.7006 16.6394 25.2902 16.4986 25.9546 16.3074C25.9451 16.3374 23.4126 20.5919 23.671 22.7036C23.7514 23.3479 23.6899 25.7014 25.9889 26.4153C29.053 26.9286 31.4997 24.5546 33.6581 22.4425C33.6581 22.4425 34.026 22.0908 34.234 21.89C34.1813 22.1007 34.1127 22.3818 34.1127 22.3818C33.2157 25.4997 34.4248 26.1539 35.1812 26.3954C37.4672 27.0596 40.1981 23.7402 40.2069 23.7402C40.136 24.7858 39.929 25.6508 41.0317 26.3448C42.0726 26.7172 43.126 26.1495 43.9266 25.6164C46.8107 23.5848 49.1342 20.4051 51.0109 17.6565H49.8139C49.7997 17.6565 46.8599 21.9152 44.951 22.8408C44.948 22.8408 44.6007 23.019 44.4005 22.878C44.1527 22.6666 44.2505 22.2274 44.4035 21.9163C44.4131 21.8959 51.7739 9.13595 51.7739 9.13595H48.2985C48.2985 9.13595 47.9188 9.74984 47.8879 9.79011C47.8645 9.77004 47.8088 9.6645 47.7702 9.61392C45.6169 6.63694 40.7408 11.2161 37.0697 16.5263C35.6563 18.5682 33.8568 20.8673 31.991 22.5267C31.991 22.5267 29.2268 25.0593 28.0457 23.2397C27.6139 22.4752 27.7467 21.3575 27.9903 20.6235C29.3654 16.711 31.7349 13.1603 34.4313 11.0178C35.1925 10.4248 36.0198 10.2532 36.4304 10.5047C36.8216 10.7364 36.8847 11.3092 36.6372 11.7016C36.0093 11.6815 35.5061 11.8723 35.0971 12.2947C34.2913 13.1397 34.0114 13.9545 34.2675 14.719C35.5121 16.4891 37.9941 12.9889 37.874 10.8567C37.8311 10.0922 37.423 9.3682 36.814 9.01583C35.9064 8.47299 34.5218 8.61358 33.6257 9.04634C32.4261 9.49876 30.5273 11.0777 29.4189 12.3049C28.0235 13.844 25.6305 15.5536 24.8821 15.3622C25.1272 14.7081 27.1486 10.5746 25.0222 9.02587ZM41.7781 15.1409C42.4542 14.2057 44.4219 11.7012 44.9017 11.2789C46.5151 9.8602 47.16 10.4844 47.2158 10.9266C45.71 13.622 43.9328 16.7099 42.2619 19.486C42.2654 19.4761 41.739 20.2805 41.739 20.2805C41.0011 21.4067 40.258 22.3723 39.0459 23.0461C38.8731 23.0967 38.5882 23.1169 38.3986 22.9756C38.1703 22.8247 38.0803 22.5732 38.106 22.3115C38.1786 21.4468 39.0596 18.8021 41.7781 15.1409ZM22.8711 16.7601C22.8711 16.7601 22.8409 16.8509 22.8259 16.8806C22.822 16.8806 21.3106 19.3444 21.3106 19.3444C20.3985 20.5617 19.2596 22.0908 17.8359 22.8247C17.4139 22.9656 16.8306 23.0563 16.5333 22.6844C15.9032 21.9299 16.228 20.8839 16.4918 20.0391L16.5852 19.7374C17.3417 17.6858 18.5421 15.875 19.7104 14.1954C19.725 14.1855 19.7577 14.1755 19.7695 14.1755C19.7723 14.1855 19.777 14.1855 19.779 14.2057C20.5122 15.6135 21.8869 16.267 22.915 16.5692C22.9212 16.5692 22.9278 16.5792 22.9278 16.5994C22.9279 16.6294 22.9111 16.6699 22.8711 16.7601ZM24.3031 13.8537C24.2965 13.8738 23.6299 15.4024 23.6299 15.4024C23.5335 15.4828 23.3811 15.4427 23.2065 15.4024L22.9073 15.3519C21.9678 15.0604 21.2591 14.4367 21.0406 13.6925C20.7392 12.2442 21.9771 11.1076 22.5226 10.6955C23.0459 10.3331 23.8595 10.1421 24.3319 10.5144C24.6233 10.8564 24.7337 11.2988 24.7337 11.7819C24.7338 12.4355 24.532 13.1696 24.3031 13.8537Z" fill="#3A5672"/>
<path d="M68.2398 18.5201C67.9047 17.7962 67.1091 17.3334 66.2613 17.3836C63.5081 17.6352 60.8152 19.8981 59.4013 23.1466C58.6593 24.8163 58.2544 26.194 57.9889 28.3866C58.845 27.4012 60.5912 25.782 62.5729 24.8968C62.5729 24.8968 62.8425 22.7949 64.2175 20.9241C64.7378 20.1494 65.7791 18.9023 66.9482 19.2341C67.9697 19.5763 67.6107 22.4025 66.253 25.1376C65.2485 27.1494 63.7112 29.1615 62.1558 30.5492C60.7807 31.7159 58.7461 33.1239 56.966 32.0378C55.8448 31.3743 55.273 29.986 55.3938 28.1957C55.9295 23.1167 58.2427 18.7918 61.553 13.8636C64.9663 9.28739 68.7289 4.59048 73.7975 2.0857C74.8314 1.56279 75.7888 1.44212 76.6164 1.76398C76.6164 1.76398 71.8584 4.37898 69.5903 9.21689C69.0134 10.4441 68.2109 12.1032 69.019 13.5717C69.4413 14.336 70.1911 14.3965 70.7947 14.3562C73.5748 13.7123 75.3709 11.1175 76.8385 8.74414C77.6893 6.94382 78.4456 5.15353 78.4456 3.16205C78.4456 2.92072 78.4331 2.599 78.4126 2.3574C79.7408 1.65363 82.4644 2.90052 82.4644 2.90052C84.5928 3.60484 89.1247 7.07492 90.6534 7.73843C91.3991 6.87359 92.6245 5.56623 93.3144 4.91234L92.3156 4.29872C90.7165 3.32311 89.0262 2.39767 87.3625 1.48253C83.5841 -0.579043 80.5086 0.144932 78.9433 0.708254C78.3282 0.929377 77.7659 1.12054 77.7659 1.12054C76.6043 -0.146692 74.6993 -0.026304 73.2955 0.315894C68.2473 1.76412 63.5604 5.29426 58.5354 11.4196C54.8411 16.2172 52.5495 20.3611 51.3281 24.4545C50.3866 27.2101 50.1005 31.2634 52.3984 33.6673C54.3521 35.7084 56.9428 35.2663 58.7722 34.5323C62.7359 32.581 66.2984 28.3767 68.0735 23.5389C68.5019 22.1009 68.9773 20.0692 68.2398 18.5201ZM77.3541 3.36338C76.8294 9.37796 72.1518 12.9085 70.9945 13.1897C70.2931 13.3303 69.0963 13.0187 70.1646 10.4946C71.7381 7.09471 74.4243 4.20843 77.3064 2.72983C77.3765 2.98133 77.3747 3.14185 77.3541 3.36338Z" fill="#3A5672"/>
<path d="M105.102 4.12752C102.585 5.55595 99.9772 6.48099 96.8198 6.15926C95.9447 7.14518 95.0928 8.16092 94.3075 9.20675C98.739 10.3333 103.437 7.82889 106.057 5.44546C108.829 3.04155 110.25 0.0144043 110.25 0.0144043C110.25 0.0144043 108.173 2.3878 105.102 4.12752Z" fill="#3A5672"/>
<path d="M55.688 12.1595L57.5504 9.13611H54.2499L52.3881 12.1595H55.688Z" fill="#3A5672"/>
<path d="M96.8065 31.6841C96.4517 31.9254 95.9531 31.7399 96.1395 31.1869C96.6039 29.7788 98.4499 26.9092 98.4499 26.9092L103.592 17.7941H100.07C99.9024 18.069 99.5443 18.7002 99.5443 18.7002C99.3814 18.4289 98.8941 17.8256 98.6934 17.6953C97.833 17.1518 96.5704 17.4088 95.6995 17.9015C91.9129 20.1145 89.1501 24.4868 86.9713 27.8965C86.9713 27.8965 84.6777 31.6868 83.4044 31.9687C82.4104 32.0492 82.513 30.7109 82.556 30.3991C82.9403 28.1458 83.8329 26.0037 84.7321 24.0625C86.561 22.7953 88.6482 21.1359 90.5451 19.3155C94.6615 15.3825 98.1319 10.9269 98.6391 9.93127C98.6391 9.93127 98.0901 10.042 97.4418 10.062C94.2749 14.4773 87.7942 20.8944 85.8295 21.8497C86.6999 19.7573 92.3232 9.77021 97.1086 4.9929L97.8617 4.26851C99.0261 3.13198 100.233 1.96534 101.173 1.77418C101.272 1.76415 101.4 1.77418 101.51 2.00588C101.552 2.89079 101.223 3.54468 100.845 4.28885L100.315 5.37523C100.315 5.37523 101.065 5.23436 101.558 5.07302C102.13 3.99737 102.764 2.79005 102.53 1.35213C102.452 0.889411 102.117 0.537456 101.679 0.456922C100.252 0.185363 98.6959 1.24109 97.4441 2.09631L97.3935 2.12627C90.9584 7.16524 85.5244 14.427 80.7736 24.344C80.4293 24.6051 79.099 24.9172 78.8728 24.7662C79.342 23.8009 79.9327 22.5031 80.2283 21.095C80.2794 20.6926 80.327 20.2805 80.327 19.8782C80.327 19.0126 80.1191 18.1982 79.3432 17.6351C78.4335 17.1824 77.3092 17.3938 76.5511 17.7356C73.1552 19.1437 70.617 22.6239 68.7855 25.49C67.8005 27.3109 66.8183 29.2612 66.5464 31.4944C66.3548 33.2442 66.7448 34.3707 67.7401 34.9341C68.7638 35.4568 70.0522 34.9135 70.5583 34.6523C73.9987 32.8419 76.4025 29.2113 78.2974 25.892C78.3727 25.8821 79.4073 25.8521 80.1898 25.6507C80.2003 25.6507 80.2046 25.6507 80.222 25.6613C80.1771 25.8115 79.7728 27.0188 79.7728 27.0188C78.5718 30.5387 78.0165 32.9328 79.1508 34.3506C80.7718 36.3523 83.4554 34.2805 85.6385 31.5443C85.1699 34.8231 86.8701 35.3363 88.166 35.085C89.6547 34.6829 91.3137 33.0934 92.0836 32.279C91.8363 33.2343 91.9036 34.9443 93.2578 35.1151C94.1861 35.2866 94.8807 34.782 95.6845 34.3494C98.5678 32.7802 102.019 27.5515 102.915 26.0397H101.74C100.467 27.9639 98.8455 30.4867 96.8065 31.6841ZM70.9266 31.3339C70.7437 31.0623 70.683 30.7654 70.677 30.4443C70.6419 28.4722 72.7648 24.9404 74.2633 23.0164C74.2664 23.0164 74.2664 23.0164 74.2664 23.0164C74.8944 24.3907 76.3164 25.2741 77.1748 25.6464C76.1087 28.0202 72.4521 33.104 70.9266 31.3339ZM77.7765 24.5852C77.6749 24.656 75.8818 24.0522 75.5353 22.3928C75.2413 20.9641 76.2257 19.8477 77.178 19.285C77.5868 18.963 78.2025 18.8526 78.6542 19.0129C79.0734 19.2949 79.187 19.7981 79.187 20.3404C79.187 20.673 79.1429 21.0146 79.104 21.3263C79.104 21.3263 79.0965 21.3869 79.0953 21.397C78.7965 22.513 78.3393 23.6094 77.7765 24.5852ZM92.1585 30.7004C92.157 30.7004 91.8183 31.002 91.8183 31.002C91.3346 31.4342 90.8368 31.897 90.236 31.6655C90.07 31.6052 89.9533 31.3842 89.9252 31.2127C89.8979 29.9756 90.4553 28.8293 90.9958 27.7131L91.1344 27.4212C92.6892 24.8264 94.4965 21.7689 97.1508 19.6469C97.5981 19.3244 98.0835 19.0534 98.5958 19.2648C98.7137 19.3751 98.8509 19.5664 98.8509 19.7573C98.8509 19.8179 98.7971 19.9787 98.766 20.0287C98.0248 21.2261 97.3187 22.4832 96.6322 23.69C95.2905 26.0738 93.8986 28.5376 92.1585 30.7004Z" fill="#3A5672"/>
</svg>
