<svg width="61" height="58" viewBox="0 0 61 58" fill="none" xmlns="http://www.w3.org/2000/svg">
<g clip-path="url(#clip0_16_74)">
<path d="M44.895 30.0006C44.895 38.0106 38.405 44.5006 30.395 44.5006C22.385 44.5006 15.895 38.0106 15.895 30.0006C15.895 21.9906 22.385 15.5006 30.395 15.5006C38.405 15.5006 44.895 21.9906 44.895 30.0006Z" fill="#684789"/>
<path d="M55.395 4.00061H5.39502V6.00061H55.395V4.00061Z" fill="#D5EBFC"/>
<path d="M37.695 54.9506L37.135 53.0306C44.915 50.7606 51.165 44.5106 53.435 36.7306L55.355 37.2906C52.895 45.7206 46.125 52.4906 37.695 54.9506Z" fill="#D5EBFC"/>
<path d="M56.395 29.9906H54.395C54.395 16.7606 43.625 5.9906 30.395 5.9906C17.165 5.9906 6.39502 16.7606 6.39502 29.9906H4.39502C4.39502 15.6506 16.055 3.9906 30.395 3.9906C44.735 3.9906 56.395 15.6506 56.395 29.9906Z" fill="#D5EBFC"/>
<path d="M23.125 54.9606C14.675 52.5006 7.89503 45.7306 5.43503 37.2806L7.35503 36.7206C9.62503 44.5206 15.885 50.7706 23.685 53.0406L23.125 54.9606Z" fill="#D5EBFC"/>
<path d="M34.395 1.00061H26.395V9.00061H34.395V1.00061Z" fill="#1F2A39"/>
<path d="M35.395 10.0006H25.395V0.000610352H35.395V10.0006ZM27.395 8.00061H33.395V2.00061H27.395V8.00061Z" fill="#D5EBFC"/>
<path d="M9.39502 26.0006H1.39502V34.0006H9.39502V26.0006Z" fill="#1F2A39"/>
<path d="M10.395 35.0006H0.39502V25.0006H10.395V35.0006ZM2.39502 33.0006H8.39502V27.0006H2.39502V33.0006Z" fill="#D5EBFC"/>
<path d="M59.395 26.0006H51.395V34.0006H59.395V26.0006Z" fill="#1F2A39"/>
<path d="M60.395 35.0006H50.395V25.0006H60.395V35.0006ZM52.395 33.0006H58.395V27.0006H52.395V33.0006Z" fill="#D5EBFC"/>
<path d="M5.39502 8.00061C7.05187 8.00061 8.39502 6.65746 8.39502 5.00061C8.39502 3.34376 7.05187 2.00061 5.39502 2.00061C3.73817 2.00061 2.39502 3.34376 2.39502 5.00061C2.39502 6.65746 3.73817 8.00061 5.39502 8.00061Z" fill="#1F2A39"/>
<path d="M5.39502 9.00061C3.18502 9.00061 1.39502 7.21061 1.39502 5.00061C1.39502 2.79061 3.18502 1.00061 5.39502 1.00061C7.60502 1.00061 9.39502 2.79061 9.39502 5.00061C9.39502 7.21061 7.60502 9.00061 5.39502 9.00061ZM5.39502 3.00061C4.29502 3.00061 3.39502 3.90061 3.39502 5.00061C3.39502 6.10061 4.29502 7.00061 5.39502 7.00061C6.49502 7.00061 7.39502 6.10061 7.39502 5.00061C7.39502 3.90061 6.49502 3.00061 5.39502 3.00061Z" fill="#D5EBFC"/>
<path d="M55.395 8.00061C57.0519 8.00061 58.395 6.65746 58.395 5.00061C58.395 3.34376 57.0519 2.00061 55.395 2.00061C53.7382 2.00061 52.395 3.34376 52.395 5.00061C52.395 6.65746 53.7382 8.00061 55.395 8.00061Z" fill="#1F2A39"/>
<path d="M55.395 9.00061C53.185 9.00061 51.395 7.21061 51.395 5.00061C51.395 2.79061 53.185 1.00061 55.395 1.00061C57.605 1.00061 59.395 2.79061 59.395 5.00061C59.395 7.21061 57.605 9.00061 55.395 9.00061ZM55.395 3.00061C54.295 3.00061 53.395 3.90061 53.395 5.00061C53.395 6.10061 54.295 7.00061 55.395 7.00061C56.495 7.00061 57.395 6.10061 57.395 5.00061C57.395 3.90061 56.495 3.00061 55.395 3.00061Z" fill="#D5EBFC"/>
<path d="M30.395 43.0006H34.035C35.435 39.0006 38.355 35.0806 40.395 33.0006C37.645 29.5806 32.725 21.4206 30.395 15.0006C28.065 21.4206 23.145 29.5806 20.395 33.0006C22.445 35.0806 25.355 39.0006 26.755 43.0006H30.395Z" fill="#1F2A39"/>
<path d="M34.035 44.0006H26.765C26.345 44.0006 25.965 43.7306 25.825 43.3306C24.545 39.6906 21.825 35.8706 19.695 33.7006C19.335 33.3406 19.315 32.7706 19.625 32.3706C22.155 29.2206 27.125 21.1006 29.465 14.6606C29.605 14.2606 29.985 14.0006 30.405 14.0006C30.825 14.0006 31.205 14.2606 31.345 14.6606C33.685 21.1106 38.655 29.2306 41.185 32.3706C41.505 32.7706 41.475 33.3406 41.115 33.7006C38.985 35.8706 36.255 39.6906 34.985 43.3306C34.845 43.7306 34.465 44.0006 34.045 44.0006H34.035ZM27.455 42.0006H33.335C34.725 38.4306 37.145 35.0606 39.075 32.9406C36.645 29.7106 32.835 23.4606 30.395 17.7206C27.945 23.4706 24.145 29.7106 21.715 32.9406C23.645 35.0606 26.065 38.4306 27.455 42.0006Z" fill="#D5EBFC"/>
<path d="M31.395 16.0006H29.395V33.0006H31.395V16.0006Z" fill="#D5EBFC"/>
<path d="M35.395 42.0006H25.395V57.0006H35.395V42.0006Z" fill="#1F2A39"/>
<path d="M36.395 58.0006H24.395V41.0006H36.395V58.0006ZM26.395 56.0006H34.395V43.0006H26.395V56.0006Z" fill="#D5EBFC"/>
<path d="M36.395 46.0006H24.395V57.0006H36.395V46.0006Z" fill="#1F2A39"/>
<path d="M37.395 58.0006H23.395V45.0006H37.395V58.0006ZM25.395 56.0006H35.395V47.0006H25.395V56.0006Z" fill="#D5EBFC"/>
<path d="M32.395 31.0006H28.395V33.0006H32.395V31.0006Z" fill="#D5EBFC"/>
</g>
<defs>
<clipPath id="clip0_16_74">
<rect width="60" height="58" fill="white" transform="translate(0.39502 0.000610352)"/>
</clipPath>
</defs>
</svg>
