<svg width="165" height="20" viewBox="0 0 165 20" fill="none" xmlns="http://www.w3.org/2000/svg">
<path d="M17.3212 4.38621C17.6939 2.37852 17.0975 1.04006 14.7121 1.04006H7.33209L6.66118 4.46057H12.923C13.2957 4.46057 13.4448 4.68365 13.3703 5.1298L12.5503 9.2939H8.67391L9.27028 6.3939L0.250275 10.7067H6.95937L6.363 13.6067L12.2521 10.7811L11.5066 14.8708C11.4321 15.317 11.2085 15.4657 10.7612 15.4657H4.49937L3.82846 18.9606H11.2085C13.5939 18.9606 14.7121 17.5478 15.0848 15.6144L17.3212 4.38621ZM29.4721 18.9606L32.9757 0.965698H24.7757C22.3903 0.965698 21.1975 2.37852 20.8248 4.31185L16.6503 18.9606H20.6757L24.4775 5.1298C24.5521 4.68365 24.7757 4.46057 25.1485 4.46057H28.4285L25.5957 18.9606H29.4721ZM42.5175 10.6324L41.6975 15.0195C41.623 15.4657 41.3248 15.6888 40.9521 15.6888H37.6721L38.7903 9.96313H42.0703C42.5175 10.0375 42.6666 10.1862 42.5175 10.6324ZM46.4685 10.1862C46.8412 8.17852 46.2448 6.7657 43.8594 6.7657H39.4612L40.5794 1.04006H36.703L33.1994 19.0349H41.4739C43.9339 19.0349 44.9775 17.6221 45.4248 15.6888L46.4685 10.1862ZM59.2157 4.46057L57.0539 15.4657H52.9539L55.7866 5.1298C55.8612 4.68365 56.0848 4.46057 56.4576 4.46057H59.2157ZM60.9303 15.4657L63.763 0.965698H56.0103C53.6248 0.965698 52.4321 2.37852 52.0594 4.31185L48.9285 15.3913H47.2885L46.543 18.8862H47.9594H60.2594H61.3775L62.0485 15.3913H60.9303V15.4657ZM74.3485 5.1298L72.4848 14.8708C72.3357 15.317 72.1121 15.4657 71.7394 15.4657H68.9812C68.6085 15.4657 68.4594 15.317 68.5339 14.8708L70.4721 5.1298C70.5466 4.68365 70.6957 4.46057 71.143 4.46057H73.9012C74.2739 4.46057 74.423 4.68365 74.3485 5.1298ZM78.2994 4.38621C78.6721 2.37852 78.0757 1.04006 75.6903 1.04006H70.7703C68.3848 1.04006 67.1921 2.45288 66.7448 4.38621L64.583 15.6144C64.2103 17.6221 64.8066 18.9606 67.1921 18.9606H72.1866C74.6466 18.9606 75.7648 17.5478 76.1376 15.6144L78.2994 4.38621ZM89.2575 5.1298L88.363 9.59134C88.2885 10.1119 88.0648 10.2606 87.6175 10.2606H84.3375L85.5303 4.46057H88.8103C89.183 4.46057 89.3321 4.68365 89.2575 5.1298ZM93.2085 4.38621C93.6557 2.37852 92.9848 1.04006 90.5994 1.04006H82.3994L78.8957 19.0349H82.623L83.6666 13.8298H88.1394C90.5248 13.8298 91.4939 12.417 91.9412 10.4093L93.2085 4.38621ZM101.11 5.72467L100.514 12.7144H97.8303L100.887 5.72467H101.11ZM104.316 18.9606L104.763 0.965698H99.5448L90.8975 18.9606H95.0721L96.4885 15.6144H100.216L99.9175 18.9606H104.316ZM118.554 4.46057L116.392 15.4657H112.292L115.125 5.1298C115.199 4.68365 115.423 4.46057 115.796 4.46057H118.554ZM120.268 15.4657L123.101 0.965698H115.348C112.963 0.965698 111.77 2.37852 111.398 4.31185L108.267 15.3913H106.627L105.881 18.8862H107.223H119.523H120.716L121.387 15.3913H120.268V15.4657ZM134.134 5.1298L132.196 14.8708C132.121 15.317 131.898 15.4657 131.525 15.4657H128.767C128.394 15.4657 128.245 15.317 128.319 14.8708L130.183 5.1298C130.332 4.68365 130.556 4.46057 130.854 4.46057H133.612C133.985 4.46057 134.208 4.68365 134.134 5.1298ZM135.401 1.04006H130.407C128.021 1.04006 126.903 2.45288 126.53 4.38621L124.368 15.6144C123.996 17.6221 124.592 18.9606 126.978 18.9606H131.972C134.358 18.9606 135.476 17.5478 135.848 15.6144L138.085 4.38621C138.383 2.37852 137.787 1.04006 135.401 1.04006ZM141.812 14.8708L140.992 19.0349H137.19L138.01 14.8708H141.812ZM162.312 16.4324C162.014 17.9195 161.194 18.9606 159.405 18.9606H156.199C154.41 18.9606 153.963 17.9195 154.261 16.4324L156.199 6.3939H158.958L157.094 15.9862C157.019 16.2093 157.094 16.358 157.243 16.358H159.256C159.479 16.358 159.554 16.2836 159.628 15.9862L161.492 6.3939H164.25L162.312 16.4324ZM150.534 9.2939L149.863 12.417C149.788 12.7888 149.639 12.8631 149.341 12.8631H147.105L147.925 8.84775H150.236C150.459 8.84775 150.608 8.99647 150.534 9.2939ZM151.428 6.3939H145.688L143.228 18.9606H145.838L146.583 15.317H147.85L148.447 18.9606H151.354L150.608 15.2426C151.652 14.9452 152.174 14.0529 152.398 12.9375L153.218 8.77339C153.59 7.36057 153.143 6.3939 151.428 6.3939Z" fill="#3A5672"/>
</svg>
