<svg width="167" height="34" viewBox="0 0 167 34" fill="none" xmlns="http://www.w3.org/2000/svg">
<path d="M66.5777 10.8928C63.9679 10.8928 62.4131 12.5786 61.1359 14.6577H61.0803C61.0803 12.5224 60.2474 10.8928 57.8598 10.8928C55.0278 10.8928 53.5286 13.0281 52.5291 14.8263H52.4736C52.6402 14.152 52.8067 13.1967 52.9733 12.41C53.0289 12.1291 52.9178 11.8481 52.7512 11.6795C52.5846 11.4548 52.307 11.3424 52.0293 11.3424H49.1975L46.6431 25.7839C46.5876 26.0087 46.6431 26.2896 46.8097 26.5145C46.9764 26.683 47.1984 26.7954 47.4761 26.7954H50.4745L50.6967 25.503C52.196 16.9054 54.2505 14.5454 55.9163 14.5454C57.0823 14.5454 57.2489 15.6692 56.9713 17.1864L55.4165 25.6153C55.361 25.8962 55.4165 26.1773 55.6387 26.402C55.8053 26.6268 56.0829 26.7391 56.3606 26.7391H59.3035L59.5256 25.4467C61.0249 16.9054 63.0794 14.4891 64.7452 14.4891C65.8558 14.4891 66.0224 15.5569 65.7448 17.1302L64.19 25.7839C64.1344 26.0087 64.19 26.2334 64.3566 26.4582C64.5232 26.6268 64.7452 26.7391 64.9673 26.7391H68.0214L69.7428 16.9617C69.9093 16.175 69.9649 15.4444 69.9649 14.8263C69.9093 12.2414 68.6877 10.8928 66.5777 10.8928ZM83.5691 7.63368L84.9019 7.85845C85.2906 7.91463 85.6238 7.97083 85.7348 7.35271L86.179 5.66693C86.2901 5.16119 86.1235 5.04881 85.6238 4.93642L84.4021 4.71165C84.1244 4.71165 83.6803 4.59927 83.5691 5.21738L83.0694 6.95935C83.014 7.35271 83.125 7.57748 83.5691 7.63368ZM44.6996 11.3424H38.8692C34.5381 11.3424 31.6507 13.1967 31.6507 16.6807C31.6507 18.535 32.9277 19.7151 34.2049 19.8275V19.8837C33.7052 20.0523 33.1499 20.7266 32.539 21.4571C31.484 22.8057 30.7067 23.7048 30.0403 23.7048C29.9292 23.7048 29.8182 23.8171 29.7626 23.9296L29.4295 26.3459C29.4295 26.4582 29.4295 26.5706 29.5406 26.6268C29.5961 26.683 29.7072 26.7391 29.8182 26.7391H31.0398C33.0389 26.7391 33.7052 25.9525 35.6487 23.4799C37.1479 21.4571 37.7032 20.839 38.6471 20.839H39.3134L38.3695 26.2896C38.3695 26.402 38.3695 26.5145 38.4251 26.5706C38.4805 26.683 38.5916 26.683 38.7027 26.683H42.0899C42.2565 26.683 42.4231 26.5706 42.4231 26.402L45.0329 11.6795C45.0329 11.5672 45.0329 11.4548 44.9773 11.3986C44.9217 11.3986 44.8107 11.3424 44.6996 11.3424ZM39.8687 18.0855H37.7586C36.426 18.0855 35.8151 17.636 35.8151 16.7368C35.8151 15.2197 36.7592 14.433 38.5916 14.433H40.5906L39.8687 18.0855ZM34.5381 4.20591C50.7522 3.53161 76.3506 6.56601 76.3506 6.56601C76.6837 6.6222 76.9613 6.45363 77.0725 6.17266L77.3501 5.32978L77.7943 3.92496C77.8498 3.81257 77.7943 3.75637 77.7388 3.64399C77.6832 3.5878 77.6278 3.53161 77.5166 3.47542C74.3515 3.02587 50.9744 -0.00853214 33.9828 0.384817C17.9908 0.778165 4.553 3.98114 0.943687 4.93642C0.666047 4.99261 0.443936 5.21738 0.388408 5.55455L-0.000289917 7.63368C-0.000289917 7.74606 -0.000287377 7.85845 0.110768 7.91463C0.166296 7.97083 0.277353 8.02702 0.388408 7.97083C3.27586 7.29651 7.3294 6.6222 12.66 5.94789L9.10628 26.0648C8.99523 26.402 8.99523 26.7954 9.66157 26.7954H13.1043C13.3264 26.7954 13.604 26.7391 13.7151 26.1773L17.0467 6.73458C17.0467 6.6784 17.2689 5.66693 18.3795 5.38596C19.8231 5.21739 22.3219 5.10499 23.8211 4.93642L20.1008 26.0648C19.9897 26.7954 20.323 26.7391 20.6006 26.7391H24.2099C24.4876 26.7391 24.9317 26.683 25.0428 26.0087L28.541 5.72312C28.541 5.72312 28.7632 4.65546 29.8738 4.43069C31.6507 4.3745 32.7612 4.26211 34.5381 4.20591ZM79.3491 7.07174L80.8483 7.29652C81.237 7.35271 81.5702 7.40891 81.7368 6.79078L82.2365 5.04881C82.3475 4.48688 82.1811 4.3745 81.6812 4.26211L80.293 4.09353C80.0154 4.03734 79.5711 3.98115 79.4046 4.59927L78.9048 6.39743C78.7383 6.73458 78.8493 6.95935 79.3491 7.07174ZM85.1795 14.9387C85.1795 12.41 83.4581 10.949 80.5152 10.949C75.6287 10.949 71.7417 15.2197 71.7417 21.0075C71.7417 24.66 73.7408 27.1887 77.5722 27.1887C80.5707 27.1887 82.5141 26.0087 83.6803 24.941L82.0699 22.1875C81.1259 23.0304 79.7933 23.8171 78.1829 23.8171C76.5172 23.8171 75.8508 22.7495 75.7953 21.0075C80.9039 20.4456 85.1795 18.7036 85.1795 14.9387ZM76.0729 18.3664C76.6282 16.1187 77.9054 14.0959 79.8488 14.0959C80.7928 14.0959 81.2925 14.4891 81.2925 15.3883C81.237 17.0179 79.127 18.0855 76.0729 18.3664ZM97.229 10.8928C94.5637 10.8928 93.1755 12.7472 91.8984 14.9387H91.8429C92.0094 14.3768 92.1204 13.871 92.2316 13.3092C92.3426 12.8034 92.2316 12.2977 91.8984 11.9043C91.5653 11.511 91.121 11.2862 90.6212 11.2862H88.6777L84.6242 33.6508H86.9008C87.9004 33.6508 88.7888 32.9204 88.9553 31.9089L89.8438 26.9077C90.1771 27.0201 90.8434 27.1325 91.9539 27.1325C97.229 27.1325 101.061 22.8057 101.061 16.1187C101.172 12.972 99.6167 10.8928 97.229 10.8928ZM92.065 24.0982C91.1765 24.0982 90.7323 23.9857 90.5102 23.9296L90.6768 23.0867C91.8429 17.4112 93.7863 14.5454 95.6187 14.5454C96.5627 14.5454 97.0069 15.4444 97.0069 16.8493C96.8959 21.3447 94.7303 24.0982 92.065 24.0982ZM160.975 10.8928C155.312 10.8928 151.369 15.4444 151.369 22.0752C151.369 25.222 152.979 27.1325 155.312 27.1325C157.81 27.1325 159.309 25.2781 160.476 23.0304H160.531C160.365 23.7048 160.253 24.5477 160.142 25.3344C160.087 25.6715 160.198 26.0648 160.476 26.3459C160.697 26.6268 161.03 26.7954 161.419 26.7954H164.03C164.085 25.6715 164.251 23.1429 164.973 18.8722L166.25 11.8481C165.584 11.511 163.752 10.8928 160.975 10.8928ZM161.697 15.0511C160.641 20.839 158.643 23.5924 156.977 23.5924C156.033 23.5924 155.588 22.8619 155.588 21.3447C155.588 17.0179 157.865 13.9834 160.365 13.9834C160.975 13.9834 161.53 14.0959 161.808 14.152L161.697 15.0511ZM146.038 20.6704C145.594 19.7712 145.149 19.1531 144.706 18.7598L151.424 11.3424H147.76C147.148 11.3424 146.538 11.6233 146.094 12.1291L141.374 17.636H140.541L141.43 12.5786C141.484 12.2977 141.43 11.9605 141.207 11.7357C141.041 11.511 140.707 11.3424 140.43 11.3424H137.487L134.821 26.7954H137.765C138.43 26.7954 138.986 26.2896 139.097 25.6715L140.041 20.4456H140.485C141.374 20.4456 141.929 21.4008 142.873 23.4799C143.983 25.8962 144.539 26.7954 146.483 26.7954H148.093L148.647 23.7048H148.315C147.593 23.7048 146.982 22.7495 146.038 20.6704ZM129.49 12.2977C128.88 16.2311 126.881 18.816 124.937 18.816C123.938 18.816 123.605 18.0855 123.883 16.3997L124.382 13.3653C124.437 12.8595 124.326 12.3538 123.994 11.9605C123.661 11.5672 123.216 11.3424 122.716 11.3424H120.661L119.718 16.5683C119.607 17.2426 119.551 17.9169 119.551 18.4788C119.551 21.0637 120.772 22.4686 122.938 22.4686C125.66 22.4686 127.437 20.6704 128.547 18.7036H128.602C128.158 21.0637 127.548 24.5477 127.326 26.7391H131.267C131.323 25.6153 131.601 23.0867 132.323 18.816L133.655 11.2862H129.602L129.49 12.2977ZM111.278 10.8928C106.336 10.8928 102.615 15.3321 102.615 20.6704C102.615 24.2105 104.781 27.1325 108.723 27.1325C113.776 27.1325 117.274 22.9181 117.274 17.3549C117.33 13.7025 115.109 10.8928 111.278 10.8928ZM109.112 23.9857C107.557 23.9857 106.78 22.6371 106.78 20.6141C106.78 17.7483 108.39 14.0959 110.944 14.0959C112.499 14.0959 113.277 15.2758 113.277 17.4112C113.277 20.2209 111.833 23.9857 109.112 23.9857Z" fill="#3A5672"/>
</svg>
