<svg width="60" height="63" viewBox="0 0 60 63" fill="none" xmlns="http://www.w3.org/2000/svg">
<g clip-path="url(#clip0_16_46)">
<path d="M49.5607 47.9698C59.1693 38.0545 58.9206 22.2273 49.0054 12.6188C39.0901 3.01024 23.263 3.25888 13.6544 13.1741C4.04586 23.0894 4.29449 38.9166 14.2097 48.5251C24.125 58.1337 39.9522 57.885 49.5607 47.9698Z" fill="#684789"/>
<path d="M7.82501 10.9006L48.125 51.2806L55.195 44.2106L14.895 3.83063L7.82501 10.9006Z" fill="#1F2A39"/>
<path d="M39.6044 42.7081L25.4623 28.5659L21.2196 32.8086L35.3618 46.9507L39.6044 42.7081Z" fill="#1F2A39"/>
<path d="M48.125 52.2806C47.865 52.2806 47.605 52.1706 47.415 51.9906L6.355 10.8406C6.225 10.7106 6.125 10.5406 6.085 10.3506L4.025 1.22063C3.945 0.890625 4.055 0.540625 4.295 0.290625C4.535 0.0406252 4.885 -0.0493748 5.225 0.0306252L14.355 2.09063C14.535 2.13063 14.705 2.22062 14.845 2.36063L24.095 11.6106L22.685 13.0206L13.635 3.97063L6.325 2.32063L7.975 9.63063L48.125 49.8606L53.785 44.2006L38.235 28.5706L39.655 27.1606L55.905 43.4906C56.295 43.8806 56.295 44.5106 55.905 44.9006L48.835 51.9706C48.645 52.1606 48.395 52.2606 48.125 52.2606V52.2806Z" fill="#D5EBFC"/>
<path d="M12.7811 7.36705L11.3654 8.77979L50.9502 48.4475L52.3659 47.0348L12.7811 7.36705Z" fill="#D5EBFC"/>
<path d="M48.1199 51.2758L55.1909 44.2047L58.0194 47.0331C58.7972 47.811 58.7972 49.0838 58.0194 49.8616L53.7767 54.1042C52.9989 54.882 51.7261 54.882 50.9483 54.1042L48.1199 51.2758Z" fill="#1F2A39"/>
<path d="M52.365 55.6906C51.595 55.6906 50.825 55.4006 50.245 54.8106L47.415 51.9806C47.025 51.5906 47.025 50.9606 47.415 50.5706L54.485 43.5006C54.875 43.1106 55.505 43.1106 55.895 43.5006L58.725 46.3306C59.295 46.9006 59.605 47.6506 59.605 48.4506C59.605 49.2506 59.295 50.0006 58.725 50.5706L54.485 54.8106C53.905 55.3906 53.135 55.6906 52.365 55.6906ZM49.535 51.2806L51.655 53.4006C52.045 53.7906 52.685 53.7906 53.075 53.4006L57.315 49.1606C57.705 48.7706 57.705 48.1406 57.315 47.7406L55.195 45.6206L49.535 51.2806Z" fill="#D5EBFC"/>
<path d="M14.0698 3.12016L6.99878 10.1912L8.41299 11.6054L15.4841 4.53437L14.0698 3.12016Z" fill="#D5EBFC"/>
<path d="M33.625 18.4406L27.965 24.1006L23.015 19.1506L28.675 13.4906C29.455 12.7106 30.725 12.7106 31.505 13.4906L33.625 15.6106C34.405 16.3906 34.405 17.6606 33.625 18.4406Z" fill="#1F2A39"/>
<path d="M27.975 25.5106L21.615 19.1506L27.975 12.7906C29.105 11.6606 31.085 11.6606 32.215 12.7906L34.335 14.9106C35.505 16.0806 35.505 17.9806 34.335 19.1506L27.975 25.5106ZM24.435 19.1506L27.975 22.6906L32.925 17.7406C33.315 17.3506 33.315 16.7206 32.925 16.3306L30.805 14.2106C30.425 13.8306 29.775 13.8306 29.395 14.2106L24.445 19.1606L24.435 19.1506Z" fill="#D5EBFC"/>
<path d="M39.995 19.1406L37.875 17.0206C37.095 16.2406 35.825 16.2406 35.045 17.0206L27.975 24.0906L32.925 29.0406L39.995 21.9706C40.775 21.1906 40.775 19.9206 39.995 19.1406Z" fill="#1F2A39"/>
<path d="M32.925 30.4606L26.565 24.1006L34.345 16.3206C35.515 15.1506 37.415 15.1506 38.585 16.3206L40.705 18.4406C41.875 19.6106 41.875 21.5106 40.705 22.6806L32.925 30.4606ZM29.385 24.1006L32.925 27.6406L39.285 21.2806C39.675 20.8906 39.675 20.2606 39.285 19.8606L37.165 17.7406C36.775 17.3506 36.145 17.3506 35.755 17.7406L29.395 24.1006H29.385Z" fill="#D5EBFC"/>
<path d="M43.955 27.9106L38.865 33.0006C37.925 33.9406 36.535 34.0606 35.755 33.2806L33.635 31.1606C32.855 30.3806 32.985 28.9906 33.915 28.0506L39.005 22.9606C39.945 22.0206 41.335 21.9006 42.115 22.6806L44.235 24.8006C45.015 25.5806 44.885 26.9706 43.955 27.9106Z" fill="#1F2A39"/>
<path d="M37.045 34.7906C36.295 34.7906 35.575 34.5306 35.045 33.9906L32.925 31.8706C31.755 30.7006 31.885 28.6706 33.205 27.3406L38.295 22.2506C38.915 21.6306 39.705 21.2506 40.525 21.1806C41.395 21.1006 42.235 21.3906 42.815 21.9706L44.935 24.0906C46.105 25.2606 45.975 27.2906 44.655 28.6206L39.565 33.7106C38.845 34.4306 37.925 34.7906 37.045 34.7906ZM40.815 23.1606C40.815 23.1606 40.735 23.1606 40.705 23.1606C40.355 23.1906 39.995 23.3706 39.705 23.6606L34.615 28.7506C34.075 29.2906 33.945 30.0606 34.335 30.4506L36.455 32.5706C36.835 32.9506 37.615 32.8206 38.155 32.2906L43.245 27.2006C43.785 26.6606 43.915 25.8906 43.525 25.5006L41.405 23.3806C41.225 23.2006 40.985 23.1606 40.815 23.1606Z" fill="#D5EBFC"/>
<path d="M38.575 36.1106L40.695 38.2306C41.475 39.0106 42.815 38.9406 43.685 38.0706L47.615 34.1406C48.485 33.2706 48.545 31.9306 47.765 31.1506L45.645 29.0306C44.865 28.2506 43.535 28.3206 42.665 29.1906L38.735 33.1206C37.865 33.9906 37.795 35.3206 38.575 36.1006V36.1106Z" fill="#1F2A39"/>
<path d="M42.045 39.7706C41.285 39.7706 40.545 39.4906 39.985 38.9406L37.865 36.8206C36.695 35.6506 36.765 33.6806 38.025 32.4206L41.955 28.4906C42.545 27.9006 43.325 27.5406 44.135 27.5006C44.985 27.4406 45.775 27.7506 46.355 28.3306L48.475 30.4506C49.055 31.0306 49.355 31.8206 49.305 32.6706C49.265 33.4806 48.915 34.2606 48.315 34.8506L44.385 38.7806C43.725 39.4406 42.875 39.7706 42.045 39.7706ZM44.295 29.4906C44.295 29.4906 44.255 29.4906 44.235 29.4906C43.915 29.5106 43.615 29.6506 43.365 29.9006L39.435 33.8306C38.955 34.3106 38.885 35.0106 39.275 35.4006L41.395 37.5206C41.785 37.9106 42.495 37.8406 42.965 37.3606L46.895 33.4306C47.135 33.1906 47.285 32.8806 47.295 32.5606C47.305 32.2806 47.225 32.0306 47.045 31.8606L44.925 29.7406C44.765 29.5806 44.535 29.4906 44.285 29.4906H44.295Z" fill="#D5EBFC"/>
<path d="M26.605 38.5706C30.585 34.5906 27.745 26.7006 24.505 23.4606C25.105 24.0606 27.415 26.3706 28.995 27.9506C32.205 31.1606 36.985 28.8706 37.765 26.8206C36.755 25.8106 27.595 16.6506 27.595 16.6506C26.365 15.4206 25.235 14.6106 23.285 14.9006C21.335 15.1906 18.285 16.8506 17.195 17.6606C16.105 18.4606 14.825 22.0506 14.825 25.1206C14.825 28.8306 15.075 32.7606 14.295 33.5406L7.46503 40.3706L23.025 55.9306L28.065 50.8906C29.655 49.3006 33.605 49.5906 35.845 47.3506L39.295 43.9006L26.615 38.5806L26.605 38.5706Z" fill="#1F2A39"/>
<path d="M23.025 57.3306L6.05499 40.3606L13.595 32.8206C13.915 32.3006 13.885 29.4406 13.855 27.3506C13.855 26.6106 13.835 25.8606 13.835 25.1106C13.835 21.8606 15.165 17.9206 16.615 16.8506C17.815 15.9706 21.025 14.2306 23.145 13.9106C25.665 13.5306 27.125 14.7606 28.305 15.9406L38.935 26.5706L38.705 27.1806C38.155 28.6306 36.335 29.9506 34.275 30.3906C32.015 30.8706 29.885 30.2606 28.295 28.6606L28.215 28.5806C28.445 29.4706 28.615 30.4106 28.715 31.3606C29.135 35.3106 28.215 38.7206 26.215 40.7206L24.805 39.3106C26.385 37.7306 27.085 34.9106 26.735 31.5706C26.415 28.5306 25.275 25.6306 23.815 24.1806L25.225 22.7706L29.715 27.2606C31.125 28.6706 32.755 28.6906 33.865 28.4506C35.035 28.2006 36.015 27.5906 36.525 27.0006L26.905 17.3806C25.735 16.2106 24.925 15.6906 23.455 15.9106C21.705 16.1806 18.805 17.7506 17.805 18.4806C17.135 18.9806 15.845 22.1206 15.845 25.1306C15.845 25.8706 15.845 26.6106 15.865 27.3406C15.915 31.2806 15.905 33.3706 15.025 34.2506L8.90499 40.3706L23.045 54.5106L27.375 50.1806C28.295 49.2606 29.655 48.8906 31.095 48.5006C32.585 48.0906 34.125 47.6706 35.155 46.6406L38.605 43.1906L40.015 44.6006L36.565 48.0506C35.165 49.4506 33.275 49.9706 31.615 50.4206C30.435 50.7406 29.325 51.0506 28.785 51.5906L23.035 57.3306H23.025Z" fill="#D5EBFC"/>
<path d="M27.2663 54.501L8.88153 36.1163L1.81046 43.1873L20.1952 61.5721L27.2663 54.501Z" fill="#1F2A39"/>
<path d="M20.195 62.9806L0.39502 43.1806L8.88502 34.6906L28.685 54.4906L20.195 62.9806ZM3.22502 43.1806L20.195 60.1506L25.855 54.4906L8.88502 37.5306L3.22502 43.1906V43.1806Z" fill="#D5EBFC"/>
<path d="M8.88412 40.3589L7.46991 41.7731L10.2983 44.6015L11.7126 43.1873L8.88412 40.3589Z" fill="#D5EBFC"/>
</g>
<defs>
<clipPath id="clip0_16_46">
<rect width="59.21" height="62.98" fill="white" transform="translate(0.39502 0.000610352)"/>
</clipPath>
</defs>
</svg>
