<svg width="64" height="58" viewBox="0 0 64 58" fill="none" xmlns="http://www.w3.org/2000/svg">
<g clip-path="url(#clip0_16_135)">
<path d="M47.2281 47.6744C55.6082 39.262 55.5821 25.649 47.1697 17.2689C38.7573 8.88874 25.1443 8.91487 16.7642 17.3272C8.38402 25.7396 8.41015 39.3526 16.8225 47.7328C25.2349 56.1129 38.8479 56.0868 47.2281 47.6744Z" fill="#684789"/>
<path d="M63.5 25.0006H59.5V23.0006H61.5V6.00061H59.5V4.00061H63.5V25.0006Z" fill="#D5EBFC"/>
<path d="M57.5 27.0006H53.5V25.0006H55.5V4.00061H53.5V2.00061H57.5V27.0006Z" fill="#D5EBFC"/>
<path d="M4.5 25.0006H0.5V4.00061H4.5V6.00061H2.5V23.0006H4.5V25.0006Z" fill="#D5EBFC"/>
<path d="M10.5 27.0006H6.5V2.00061H10.5V4.00061H8.5V25.0006H10.5V27.0006Z" fill="#D5EBFC"/>
<path d="M50.5 1.00061H13.5V28.0006H50.5V1.00061Z" fill="#1F2A39"/>
<path d="M51.5 29.0006H12.5V0.000610352H51.5V29.0006ZM14.5 27.0006H49.5V2.00061H14.5V27.0006Z" fill="#D5EBFC"/>
<path d="M41.5 12.0006C43.1569 12.0006 44.5 10.6575 44.5 9.00061C44.5 7.34376 43.1569 6.00061 41.5 6.00061C39.8431 6.00061 38.5 7.34376 38.5 9.00061C38.5 10.6575 39.8431 12.0006 41.5 12.0006Z" fill="#1F2A39"/>
<path d="M41.5 13.0006C39.29 13.0006 37.5 11.2106 37.5 9.00061C37.5 6.79061 39.29 5.00061 41.5 5.00061C43.71 5.00061 45.5 6.79061 45.5 9.00061C45.5 11.2106 43.71 13.0006 41.5 13.0006ZM41.5 7.00061C40.4 7.00061 39.5 7.90061 39.5 9.00061C39.5 10.1006 40.4 11.0006 41.5 11.0006C42.6 11.0006 43.5 10.1006 43.5 9.00061C43.5 7.90061 42.6 7.00061 41.5 7.00061Z" fill="#D5EBFC"/>
<path d="M37.5 16.0006L34 19.5006L26.5 12.0006L13.5 25.0006V28.0006H49.5L37.5 16.0006Z" fill="#1F2A39"/>
<path d="M51.91 29.0006H12.5V24.5906L26.5 10.5906L34 18.0906L37.5 14.5906L51.91 29.0006ZM14.5 27.0006H47.09L37.5 17.4106L35.41 19.5006L38.2 22.2906L36.79 23.7006L26.5 13.4106L14.5 25.4106V27.0006Z" fill="#D5EBFC"/>
<path d="M39.5 35.0006H37.5C37.5 33.8806 36.44 33.0006 35.5 33.0006H33.5C33.12 32.4006 32.13 32.0006 31.5 32.0006H29.5V24.0006C29.5 22.9006 28.6 22.0006 27.5 22.0006C26.4 22.0006 25.5 22.9006 25.5 24.0006V38.0006L24.16 39.2806L21.55 35.2306C19.95 33.0306 17.5 34.2606 17.5 35.2306C17.5 35.2306 20.53 44.9106 20.97 45.5906C21.67 46.6806 24.5 49.1406 24.5 50.0006V54.0006H39.5V51.0006C39.5 49.6506 41.5 48.0206 41.5 46.0006V37.0006C41.5 35.8806 40.44 35.0006 39.5 35.0006Z" fill="#1F2A39"/>
<path d="M40.5 55.0006H23.5V50.0906C23.32 49.6806 22.34 48.6406 21.74 48.0106C21.05 47.2706 20.45 46.6406 20.13 46.1306C19.69 45.4406 17.7 39.1906 16.55 35.5306L16.5 35.2306C16.5 34.3506 17.23 33.5206 18.32 33.1606C19.48 32.7806 21.15 32.9706 22.36 34.6406L24.35 37.7206L24.5 37.5706V24.0006C24.5 22.3506 25.85 21.0006 27.5 21.0006C29.15 21.0006 30.5 22.3506 30.5 24.0006V31.0006H31.5C32.27 31.0006 33.29 31.3706 33.96 32.0006H35.5C36.63 32.0006 37.87 32.7806 38.32 34.0006H39.5C40.92 34.0006 42.5 35.2306 42.5 37.0006V46.0006C42.5 47.4006 41.78 48.5806 41.2 49.5206C40.87 50.0606 40.5 50.6706 40.5 51.0006V55.0006ZM25.5 53.0006H38.5V51.0006C38.5 50.1106 38.98 49.3206 39.49 48.4806C39.98 47.6706 40.5 46.8306 40.5 46.0006V37.0006C40.5 36.4506 39.9 36.0006 39.5 36.0006H36.5V35.0006C36.5 34.4506 35.9 34.0006 35.5 34.0006H32.95L32.66 33.5406C32.5 33.2906 31.88 33.0006 31.5 33.0006H30.5V35.0006H28.5V24.0006C28.5 23.4506 28.05 23.0006 27.5 23.0006C26.95 23.0006 26.5 23.4506 26.5 24.0006V38.4306L23.98 40.8506L20.71 35.7806C20.33 35.2606 19.83 34.9806 19.29 35.0106C18.95 35.0306 18.69 35.1706 18.56 35.2806C19.94 39.6806 21.53 44.5306 21.83 45.0906C22.04 45.4106 22.63 46.0406 23.2 46.6406C24.67 48.2006 25.5 49.1306 25.5 50.0006V53.0006Z" fill="#D5EBFC"/>
<path d="M34.5 33.0006H32.5V36.0006H34.5V33.0006Z" fill="#D5EBFC"/>
<path d="M38.5 35.0006H36.5V37.0006H38.5V35.0006Z" fill="#D5EBFC"/>
<path d="M41.5 53.0006H22.5V58.0006H41.5V53.0006Z" fill="#684789"/>
<path d="M42.5 58.0006H40.5V54.0006H23.5V58.0006H21.5V52.0006H42.5V58.0006Z" fill="#D5EBFC"/>
<path d="M28.5 56.0006H25.5V58.0006H28.5V56.0006Z" fill="#D5EBFC"/>
</g>
<defs>
<clipPath id="clip0_16_135">
<rect width="63" height="58" fill="white" transform="translate(0.5 0.000610352)"/>
</clipPath>
</defs>
</svg>
