<svg width="65" height="56" viewBox="0 0 65 56" fill="none" xmlns="http://www.w3.org/2000/svg">
<g clip-path="url(#clip0_16_156)">
<path d="M19.5 0.000610352C10.11 0.000610352 2.5 7.61061 2.5 17.0006C2.5 20.0506 3.31 22.9106 4.72 25.3806C6.39 23.9006 8.59 23.0006 11 23.0006C11.88 23.0006 12.73 23.1306 13.54 23.3506C13.51 23.0706 13.5 22.7806 13.5 22.5006C13.5 17.2506 17.75 13.0006 23 13.0006C24.34 13.0006 25.62 13.2806 26.77 13.7806C27.46 10.4206 29.39 7.53061 32.07 5.58061C28.96 2.16061 24.49 0.000610352 19.5 0.000610352Z" fill="#684789"/>
<path d="M52.5 43.0006H51.5V41.0006H52.5C58.01 41.0006 62.5 36.5106 62.5 31.0006C62.5 25.4906 58.31 21.2706 52.97 21.0206L51.73 20.9606L52.06 19.7606C52.36 18.6606 52.51 17.5706 52.51 16.5006C52.51 9.61061 46.9 4.00061 40.01 4.00061C34.1 4.00061 28.95 8.20061 27.76 13.9806L27.51 15.1906L26.38 14.7006C25.31 14.2406 24.17 14.0006 23 14.0006C18.31 14.0006 14.5 17.8106 14.5 22.5006C14.5 22.7606 14.52 23.0106 14.54 23.2706L14.67 24.7106L13.28 24.3206C12.52 24.1106 11.75 24.0006 11 24.0006C6.31 24.0006 2.5 27.8106 2.5 32.5006C2.5 37.1906 6.31 41.0006 11 41.0006H16.5V43.0006H11C5.21 43.0006 0.5 38.2906 0.5 32.5006C0.5 26.7106 5.21 22.0006 11 22.0006C11.5 22.0006 12 22.0406 12.51 22.1106C12.71 16.5006 17.34 12.0006 23 12.0006C24.05 12.0006 25.08 12.1506 26.07 12.4606C27.84 6.34061 33.53 2.00061 40 2.00061C48 2.00061 54.5 8.50061 54.5 16.5006C54.5 17.3706 54.42 18.2606 54.25 19.1406C60.09 19.9906 64.5 24.9906 64.5 31.0006C64.5 37.6206 59.12 43.0006 52.5 43.0006Z" fill="#D5EBFC"/>
<path d="M53.5 48.0006H39.5V46.0006H51.5V28.0006H46.5V26.0006H53.5V48.0006Z" fill="#D5EBFC"/>
<path d="M27.5 32.0006H25.5V26.0006H43.5V28.0006H27.5V32.0006Z" fill="#D5EBFC"/>
<path d="M36.5 35.0006H10.5V55.0006H36.5V35.0006Z" fill="#1F2A39"/>
<path d="M37.5 56.0006H9.5V34.0006H37.5V56.0006ZM11.5 54.0006H35.5V36.0006H11.5V54.0006Z" fill="#D5EBFC"/>
<path d="M25 46.5006L28.5 43.0006L36.5 51.0006V55.0006H10.5V51.0006L19.5 42.0006L27.5 50.0006" fill="#1F2A39"/>
<path d="M37.5 56.0006H9.5V50.5906L19.5 40.5906L24.5 45.5906L28.5 41.5906L37.5 50.5906V56.0006ZM11.5 54.0006H35.5V51.4106L28.5 44.4106L25.91 47.0006L28.2 49.2906L26.79 50.7006L19.5 43.4106L11.5 51.4106V54.0006Z" fill="#D5EBFC"/>
<path d="M47.5 40.0006H39.5V38.0006H45.5V21.0006H21.5V32.0006H19.5V19.0006H47.5V40.0006Z" fill="#D5EBFC"/>
<path d="M6.5 32.0006H4.5C4.5 28.6906 7.19 26.0006 10.5 26.0006V28.0006C8.29 28.0006 6.5 29.8006 6.5 32.0006Z" fill="#D5EBFC"/>
<path d="M32.5 38.0006H30.5V40.0006H32.5V38.0006Z" fill="#D5EBFC"/>
</g>
<defs>
<clipPath id="clip0_16_156">
<rect width="64" height="56" fill="white" transform="translate(0.5 0.000610352)"/>
</clipPath>
</defs>
</svg>
