<svg width="55" height="58" viewBox="0 0 55 58" fill="none" xmlns="http://www.w3.org/2000/svg">
<g clip-path="url(#clip0_16_107)">
<path d="M50.5 28.3506C50.5 42.1606 39.31 53.3506 25.5 53.3506C11.69 53.3506 0.5 42.1606 0.5 28.3506C0.5 14.5406 11.69 3.34061 25.5 3.34061C39.31 3.34061 50.5 14.5306 50.5 28.3406V28.3506Z" fill="#684789"/>
<path d="M21.5 1.34061L17.5 9.34061H25.5L21.5 1.34061Z" fill="#1F2A39"/>
<path d="M25.5 9.34061H17.5V50.3406H25.5V9.34061Z" fill="#1F2A39"/>
<path d="M25.5 51.3406H17.5C16.95 51.3406 16.5 50.8906 16.5 50.3406V9.34062C16.5 9.18062 16.54 9.03063 16.61 8.89062L20.61 0.900625C20.95 0.220625 22.06 0.220625 22.4 0.900625L26.4 8.90062C26.47 9.04062 26.51 9.19063 26.51 9.35063V50.3406C26.51 50.8906 26.06 51.3406 25.51 51.3406H25.5ZM18.5 49.3406H24.5V9.58062L21.5 3.58063L18.5 9.58062V49.3406Z" fill="#D5EBFC"/>
<path d="M22.5 9.34061H20.5V50.3406H22.5V9.34061Z" fill="#D5EBFC"/>
<path d="M23.5 57.3406H19.5C17.85 57.3406 16.5 55.9906 16.5 54.3406V50.3406H18.5V54.3406C18.5 54.8906 18.95 55.3406 19.5 55.3406H23.5C24.05 55.3406 24.5 54.8906 24.5 54.3406V50.3406H26.5V54.3406C26.5 55.9906 25.15 57.3406 23.5 57.3406Z" fill="#D5EBFC"/>
<path d="M25.5 9.34061H17.5V11.3406H25.5V9.34061Z" fill="#D5EBFC"/>
<path d="M11.49 14.3706C15.09 9.52062 9.38 8.30062 10.43 1.79062C5.53 4.30062 3.77 8.67062 4.92 12.7206C5.59 15.0806 8.78 16.9606 11.49 14.3706Z" fill="#1F2A39"/>
<path d="M8.67 16.6206C8.27 16.6206 7.87 16.5706 7.47 16.4606C5.81 16.0106 4.43 14.6506 3.96 13.0006C2.59 8.21061 4.95 3.46061 9.97 0.90061L11.73 0.000610352L11.42 1.95061C10.99 4.61061 11.81 6.24061 12.6 7.82061C13.59 9.80061 14.62 11.8506 12.3 14.9706L12.19 15.1006C11.14 16.1006 9.92 16.6206 8.68 16.6206H8.67ZM9.3 3.64061C6.22 5.85061 4.92 9.10061 5.88 12.4506C6.16 13.4306 7.01 14.2606 7.99 14.5306C8.93 14.7906 9.88 14.5006 10.74 13.7106C12.26 11.6306 11.74 10.5906 10.8 8.72061C10.14 7.41061 9.36 5.84061 9.3 3.65061V3.64061Z" fill="#D5EBFC"/>
<path d="M11.5 15.3406H6.5V26.3406H11.5V15.3406Z" fill="#1F2A39"/>
<path d="M12.5 27.3406H5.5V14.3406H12.5V27.3406ZM7.5 25.3406H10.5V16.3406H7.5V25.3406Z" fill="#D5EBFC"/>
<path d="M8.94 56.3406H8.97C7.59 56.3406 6.5 55.2206 6.5 53.8406V25.3406H11.5V53.8406C11.5 55.2206 10.32 56.3406 8.94 56.3406Z" fill="#1F2A39"/>
<path d="M8.97 57.3406C8.97 57.3406 8.95 57.3406 8.94 57.3406C7.04 57.3206 5.5 55.7606 5.5 53.8406V24.3406H12.5V53.8406C12.5 55.7606 10.92 57.3206 8.97 57.3406ZM7.5 26.3406V53.8406C7.5 54.6806 8.14 55.3306 8.96 55.3406C9.8 55.3406 10.5 54.6506 10.5 53.8406V26.3406H7.5Z" fill="#D5EBFC"/>
<path d="M30.5 28.3406V42.3406H54.5V28.3406C54.5 28.3406 46.06 26.4906 45.31 23.2806C44.56 20.0706 47.73 15.2106 47.73 12.2506C47.73 9.29061 45.23 7.34061 42.5 7.34061C39.76 7.34061 37.22 9.44061 37.22 12.2506C37.22 15.2106 40.4 20.0806 39.64 23.2806C38.89 26.4906 30.49 28.3406 30.49 28.3406H30.5Z" fill="#1F2A39"/>
<path d="M52.5 42.3406H32.5V55.3406H52.5V42.3406Z" fill="#1F2A39"/>
<path d="M53.5 56.3406H31.5V41.3406H53.5V56.3406ZM33.5 54.3406H51.5V43.3406H33.5V54.3406Z" fill="#D5EBFC"/>
<path d="M50.5 31.3406H34.5V38.3406H50.5V31.3406Z" fill="#1F2A39"/>
<path d="M51.5 39.3406H33.5V30.3406H51.5V39.3406ZM35.5 37.3406H49.5V32.3406H35.5V37.3406Z" fill="#D5EBFC"/>
<path d="M37.5 50.3406H35.5V55.3406H37.5V50.3406Z" fill="#D5EBFC"/>
<path d="M48.5 48.3406H46.5V55.3406H48.5V48.3406Z" fill="#D5EBFC"/>
<path d="M44.5 51.3406H42.5V55.3406H44.5V51.3406Z" fill="#D5EBFC"/>
<path d="M43.5 11.3406H41.5V13.3406H43.5V11.3406Z" fill="#D5EBFC"/>
</g>
<defs>
<clipPath id="clip0_16_107">
<rect width="54" height="57.34" fill="white" transform="translate(0.5 0.000610352)"/>
</clipPath>
</defs>
</svg>
