<svg width="133" height="30" viewBox="0 0 133 30" fill="none" xmlns="http://www.w3.org/2000/svg">
<path fill-rule="evenodd" clip-rule="evenodd" d="M18.7841 21.3841C18.7841 26.0959 15.0874 29.5129 9.21544 29.5129C5.81058 29.4172 2.58391 27.9472 0.250244 25.4288L2.21406 23.2242C4.05214 25.0006 6.21485 26.7271 9.17657 26.7271C12.4664 26.7271 16.0133 24.8544 16.0133 21.492C16.0133 18.6992 13.8266 16.8776 9.23144 15.4411C3.99499 13.8167 1.33503 11.6122 1.33503 7.46775C1.33503 3.36619 4.75513 0.000244141 9.62809 0.000244141C13.2677 0.000244141 15.5447 1.57473 17.7611 3.58665L15.8305 5.76215C13.8872 4.01478 12.0354 2.83014 9.76297 2.83014C6.94413 2.83014 4.16187 4.67498 4.16187 7.33084C4.16187 9.73724 5.52442 11.27 10.3345 12.7644C14.74 14.1416 18.7841 16.2754 18.7841 21.3829V21.3841ZM42.5523 2.71777C42.5523 4.01 43.5841 5.05758 44.8568 5.05758C45.4681 5.05788 46.0544 4.81147 46.4865 4.37259C46.9189 3.93373 47.1615 3.33841 47.1612 2.71777C47.1612 1.42553 46.1295 0.377965 44.8568 0.377965C43.5841 0.377965 42.5523 1.42553 42.5523 2.71777ZM64.8528 0.857527H62.075V29.0507H64.8528V0.857527ZM71.3355 28.1123C71.3355 28.1123 73.0456 29.522 78.7427 29.522L78.7392 29.5209C84.3632 29.5209 88.9275 25.3462 88.9275 19.6423C88.9275 13.9384 84.3666 9.78001 78.7427 9.78001C77.1473 9.73665 75.5636 10.0653 74.1132 10.7407V0.857527H71.3355V28.1123ZM92.1706 19.667C92.1702 25.3734 96.7274 29.9997 102.35 30.0004C107.972 30.0004 112.53 25.3745 112.531 19.6678C112.531 13.9614 107.973 9.33551 102.351 9.33529C96.729 9.33508 92.171 13.9607 92.1706 19.667ZM129.374 29.0595H133L124.984 19.3677L132.46 10.2781H128.854L123.177 17.1818L117.47 10.2781H113.845L121.374 19.3804L113.414 29.0595H117.018L123.18 21.5664L129.374 29.0595ZM102.367 12.125C99.3687 12.1245 96.6652 13.9576 95.5176 16.7693C94.3699 19.5811 95.004 22.8177 97.1242 24.9698C99.2444 27.1219 102.433 27.7657 105.203 26.6007C107.973 25.4357 109.779 22.6917 109.779 19.6482C109.778 15.4935 106.46 12.1256 102.367 12.125ZM78.7423 12.6053C77.0835 12.629 75.4702 13.1596 74.1128 14.1278V25.7644C75.5515 26.4742 77.1455 26.7977 78.7423 26.7043C82.8322 26.7043 86.1494 23.8033 86.1494 19.6549C86.1494 15.5064 82.8289 12.6042 78.7389 12.6042L78.7423 12.6053ZM52.8173 0.857843H55.595V29.051H52.8173V0.857843ZM35.6859 29.0532L25.9696 19.1908L34.7656 10.2568H38.6933L29.8973 19.1908L39.6135 29.0532H35.6859ZM23.1832 0.857527V29.0507H25.9609V0.857527H23.1832ZM43.5655 29.0532H46.3432V10.2568H43.5655V29.0532Z" fill="#3A5672"/>
</svg>
